<svg version="1.1" id="Layer_1" xmlns="http://www.w3.org/2000/svg" xmlns:xlink="http://www.w3.org/1999/xlink" x="0px" y="0px"
	 width="100%" viewBox="0 0 512 512" enable-background="new 0 0 512 512" xml:space="preserve">
<path fill="none" opacity="1.000000" stroke="none"
	d="
M0.999998,370.000000 
	C1.000000,247.053299 1.000000,124.106613 1.000000,1.079960 
	C171.666656,1.079960 342.333313,1.079960 513.000000,1.079960 
	C513.000000,41.100658 513.000000,81.083344 512.659302,121.336555 
	C509.889435,104.089096 500.468842,90.714989 486.973358,80.065155 
	C474.467682,70.196396 459.995667,66.347534 444.061768,66.926163 
	C422.459229,67.710648 405.661011,77.161705 392.973053,94.246468 
	C383.179535,107.433777 379.613953,122.324875 380.902374,138.725800 
	C382.306458,156.599289 389.892365,171.102341 402.860535,183.369492 
	C391.315826,205.519058 379.833282,227.312332 368.417999,249.140823 
	C361.849091,261.701935 355.389099,274.320068 348.420959,286.940125 
	C335.080811,286.026184 322.901733,288.810547 310.970154,293.610077 
	C301.546692,285.736389 292.304840,278.161530 283.075714,270.571228 
	C273.843353,262.978241 264.564423,255.440277 255.417282,247.745789 
	C248.141373,241.625351 241.033310,235.305389 233.998383,228.742813 
	C240.441742,218.066803 243.658081,206.638489 243.819519,194.731659 
	C243.987869,182.314133 240.808731,170.479630 234.295715,159.596451 
	C218.756821,133.631149 190.361313,122.873886 163.693848,128.393890 
	C147.900711,131.662949 134.423386,139.711151 124.425957,152.998459 
	C111.715050,169.892181 108.324638,188.642410 112.527100,209.015366 
	C115.200836,221.977310 122.050232,232.672440 131.081085,242.408356 
	C122.673752,255.340393 114.309212,267.899628 106.010979,280.502502 
	C98.255806,292.280609 90.571022,304.105011 82.442017,315.931335 
	C73.573601,315.646271 64.865631,313.882690 56.709641,315.298584 
	C29.876146,319.957062 11.925031,335.738464 3.192458,361.688782 
	C2.280680,364.398285 1.722330,367.226746 0.999998,370.000000 
z"/>
<path fill="none" opacity="1.000000" stroke="none"
	d="
M513.000000,144.000000 
	C513.000000,266.946686 513.000000,389.893402 513.000000,512.920044 
	C342.333344,512.920044 171.666672,512.920044 1.000000,512.920044 
	C1.000000,472.899292 1.000000,432.916626 1.340737,392.663422 
	C3.831966,407.396820 11.289637,419.373413 22.128572,429.736633 
	C37.652584,444.579285 56.477734,449.172211 76.900742,446.686615 
	C93.151855,444.708740 106.839256,436.835205 117.625954,423.990082 
	C133.320221,405.300873 136.798172,384.290283 130.590973,361.259155 
	C127.516991,349.853485 120.658226,340.594727 113.015457,331.654785 
	C113.632851,330.865356 114.191360,330.453125 114.553711,329.910065 
	C130.352676,306.231628 146.134277,282.541595 162.361145,258.909119 
	C178.511353,261.502991 193.670578,259.985168 208.373428,253.010651 
	C215.555725,259.018219 222.390884,264.919403 229.325806,270.700897 
	C240.653229,280.144348 252.027176,289.532288 263.417267,298.900146 
	C270.876556,305.035095 278.398865,311.093323 285.892639,317.535889 
	C277.239166,331.364014 274.222290,346.381439 276.294830,361.889832 
	C278.601288,379.148346 286.464020,393.919586 300.467407,405.016663 
	C311.906830,414.081909 324.848511,419.396545 339.349457,419.894318 
	C359.873016,420.598877 377.430145,413.400757 391.378204,398.100922 
	C406.656525,381.341949 412.078918,361.485565 407.547638,339.550842 
	C404.091827,322.822449 394.986542,309.036407 381.012909,298.627380 
	C391.662750,278.476624 402.130646,258.635834 412.635437,238.814606 
	C419.702576,225.479782 426.821869,212.172562 434.373901,198.909164 
	C442.350769,198.964691 450.078644,200.094315 457.355103,198.760818 
	C483.891846,193.897598 501.886139,178.527817 510.603027,152.758835 
	C511.571259,149.896484 512.209045,146.922318 513.000000,144.000000 
z"/>
<path fill="#4DCFE0" opacity="1.000000" stroke="none" 
	d="
M513.000000,143.531433 
	C512.209045,146.922318 511.571259,149.896484 510.603027,152.758835 
	C501.886139,178.527817 483.891846,193.897598 457.355103,198.760818 
	C450.078644,200.094315 442.350769,198.964691 434.150208,198.632599 
	C430.697021,197.374191 427.734009,196.806244 425.186035,195.455475 
	C417.686066,191.479431 410.350677,187.192932 402.950867,183.027969 
	C389.892365,171.102341 382.306458,156.599289 380.902374,138.725800 
	C379.613953,122.324875 383.179535,107.433777 392.973053,94.246468 
	C405.661011,77.161705 422.459229,67.710648 444.061768,66.926163 
	C459.995667,66.347534 474.467682,70.196396 486.973358,80.065155 
	C500.468842,90.714989 509.889435,104.089096 512.659302,121.803543 
	C513.000000,129.020950 513.000000,136.041901 513.000000,143.531433 
M416.979828,145.325668 
	C417.667236,146.610489 418.283569,147.939606 419.052887,149.173355 
	C427.724091,163.079636 440.306122,167.364868 454.278748,164.701523 
	C466.590027,162.354858 477.604126,149.886917 478.986816,138.044617 
	C480.632904,123.946220 473.958466,110.754898 462.017944,104.507477 
	C450.552826,98.508797 435.240784,100.218353 425.995148,108.494156 
	C415.967224,117.470146 411.487000,131.310776 416.979828,145.325668 
z"/>
<path fill="#4DCFE0" opacity="1.000000" stroke="none" 
	d="
M112.865082,331.970947 
	C120.658226,340.594727 127.516991,349.853485 130.590973,361.259155 
	C136.798172,384.290283 133.320221,405.300873 117.625954,423.990082 
	C106.839256,436.835205 93.151855,444.708740 76.900742,446.686615 
	C56.477734,449.172211 37.652584,444.579285 22.128572,429.736633 
	C11.289637,419.373413 3.831966,407.396820 1.340737,392.196442 
	C1.000000,384.979034 1.000000,377.958099 0.999998,370.468567 
	C1.722330,367.226746 2.280680,364.398285 3.192458,361.688782 
	C11.925031,335.738464 29.876146,319.957062 56.709641,315.298584 
	C64.865631,313.882690 73.573601,315.646271 82.645874,316.238647 
	C90.663612,320.101593 98.103516,323.601593 105.443779,327.299377 
	C108.042503,328.608551 110.398354,330.399780 112.865082,331.970947 
M61.102192,412.931641 
	C63.600994,412.954437 66.101128,413.041626 68.598381,412.989807 
	C88.509056,412.576782 103.710846,392.441406 98.310310,372.626648 
	C94.340630,358.061707 79.548225,346.887085 63.294086,348.904419 
	C43.968788,351.302979 30.725706,369.894012 35.973644,389.197510 
	C39.399254,401.797913 48.042149,409.123810 61.102192,412.931641 
z"/>
<path fill="#4DCFE0" opacity="1.000000" stroke="none" 
	d="
M208.071091,252.850540 
	C193.670578,259.985168 178.511353,261.502991 162.147964,258.635620 
	C154.735229,255.224945 147.866913,252.362000 141.266983,248.975967 
	C137.661072,247.125977 134.509369,244.390656 131.152832,242.054596 
	C122.050232,232.672440 115.200836,221.977310 112.527100,209.015366 
	C108.324638,188.642410 111.715050,169.892181 124.425957,152.998459 
	C134.423386,139.711151 147.900711,131.662949 163.693848,128.393890 
	C190.361313,122.873886 218.756821,133.631149 234.295715,159.596451 
	C240.808731,170.479630 243.987869,182.314133 243.819519,194.731659 
	C243.658081,206.638489 240.441742,218.066803 233.697357,228.868790 
	C228.524567,234.383820 223.996536,239.646286 219.007126,244.427277 
	C215.704132,247.592300 211.739517,250.066864 208.071091,252.850540 
M146.076706,203.089218 
	C147.332901,205.563446 148.482269,208.099060 149.863266,210.501556 
	C156.872955,222.696014 170.834961,228.177811 183.122818,225.681915 
	C199.127457,222.431076 211.611282,207.543900 209.063492,189.436646 
	C207.522614,178.485626 201.834427,170.470383 192.456848,165.288574 
	C180.937393,158.923187 169.465118,160.218719 158.538605,167.205124 
	C147.995667,173.946228 142.096725,190.514862 146.076706,203.089218 
z"/>
<path fill="#4DCFE0" opacity="1.000000" stroke="none" 
	d="
M380.846680,298.945709 
	C394.986542,309.036407 404.091827,322.822449 407.547638,339.550842 
	C412.078918,361.485565 406.656525,381.341949 391.378204,398.100922 
	C377.430145,413.400757 359.873016,420.598877 339.349457,419.894318 
	C324.848511,419.396545 311.906830,414.081909 300.467407,405.016663 
	C286.464020,393.919586 278.601288,379.148346 276.294830,361.889832 
	C274.222290,346.381439 277.239166,331.364014 286.239868,317.472534 
	C292.367981,311.272522 298.085632,305.420807 303.961609,299.732666 
	C306.171112,297.593811 308.747986,295.834473 311.157349,293.902130 
	C322.901733,288.810547 335.080811,286.026184 348.677216,287.231995 
	C356.486450,289.612000 363.649475,291.526215 370.645386,293.927368 
	C374.201111,295.147797 377.455872,297.244904 380.846680,298.945709 
M369.554169,336.067993 
	C361.549042,322.701263 344.373383,317.150757 329.880249,323.662201 
	C317.213226,329.353241 310.288696,339.338226 310.055450,353.354279 
	C309.832458,366.752655 316.654541,376.469208 328.101715,382.312988 
	C341.618164,389.213135 357.084595,386.080811 367.313599,373.360657 
	C376.683899,361.708344 376.910583,349.491211 369.554169,336.067993 
z"/>
<path fill="#1185E0" opacity="1.000000" stroke="none" 
	d="
M381.012909,298.627380 
	C377.455872,297.244904 374.201111,295.147797 370.645386,293.927368 
	C363.649475,291.526215 356.486450,289.612000 349.136292,287.204437 
	C355.389099,274.320068 361.849091,261.701935 368.417999,249.140823 
	C379.833282,227.312332 391.315826,205.519058 402.860535,183.369492 
	C410.350677,187.192932 417.686066,191.479431 425.186035,195.455475 
	C427.734009,196.806244 430.697021,197.374191 433.694092,198.576416 
	C426.821869,212.172562 419.702576,225.479782 412.635437,238.814606 
	C402.130646,258.635834 391.662750,278.476624 381.012909,298.627380 
z"/>
<path fill="#1185E0" opacity="1.000000" stroke="none" 
	d="
M310.970154,293.610077 
	C308.747986,295.834473 306.171112,297.593811 303.961609,299.732666 
	C298.085632,305.420807 292.367981,311.272522 286.240173,317.122559 
	C278.398865,311.093323 270.876556,305.035095 263.417267,298.900146 
	C252.027176,289.532288 240.653229,280.144348 229.325806,270.700897 
	C222.390884,264.919403 215.555725,259.018219 208.373428,253.010651 
	C211.739517,250.066864 215.704132,247.592300 219.007126,244.427277 
	C223.996536,239.646286 228.524567,234.383820 233.549698,229.199997 
	C241.033310,235.305389 248.141373,241.625351 255.417282,247.745789 
	C264.564423,255.440277 273.843353,262.978241 283.075714,270.571228 
	C292.304840,278.161530 301.546692,285.736389 310.970154,293.610077 
z"/>
<path fill="#1185E0" opacity="1.000000" stroke="none" 
	d="
M131.081085,242.408356 
	C134.509369,244.390656 137.661072,247.125977 141.266983,248.975967 
	C147.866913,252.362000 154.735229,255.224945 161.704803,258.579498 
	C146.134277,282.541595 130.352676,306.231628 114.553711,329.910065 
	C114.191360,330.453125 113.632851,330.865356 113.015457,331.654785 
	C110.398354,330.399780 108.042503,328.608551 105.443779,327.299377 
	C98.103516,323.601593 90.663612,320.101593 83.059120,316.216370 
	C90.571022,304.105011 98.255806,292.280609 106.010979,280.502502 
	C114.309212,267.899628 122.673752,255.340393 131.081085,242.408356 
z"/>
<path fill="none" opacity="1.000000" stroke="none"
	d="
M416.912048,144.934906 
	C411.487000,131.310776 415.967224,117.470146 425.995148,108.494156 
	C435.240784,100.218353 450.552826,98.508797 462.017944,104.507477 
	C473.958466,110.754898 480.632904,123.946220 478.986816,138.044617 
	C477.604126,149.886917 466.590027,162.354858 454.278748,164.701523 
	C440.306122,167.364868 427.724091,163.079636 419.052887,149.173355 
	C418.283569,147.939606 417.667236,146.610489 416.912048,144.934906 
z"/>
<path fill="none" opacity="1.000000" stroke="none"
	d="
M60.686668,412.804443 
	C48.042149,409.123810 39.399254,401.797913 35.973644,389.197510 
	C30.725706,369.894012 43.968788,351.302979 63.294086,348.904419 
	C79.548225,346.887085 94.340630,358.061707 98.310310,372.626648 
	C103.710846,392.441406 88.509056,412.576782 68.598381,412.989807 
	C66.101128,413.041626 63.600994,412.954437 60.686668,412.804443 
z"/>
<path fill="none" opacity="1.000000" stroke="none"
	d="
M146.022781,202.675217 
	C142.096725,190.514862 147.995667,173.946228 158.538605,167.205124 
	C169.465118,160.218719 180.937393,158.923187 192.456848,165.288574 
	C201.834427,170.470383 207.522614,178.485626 209.063492,189.436646 
	C211.611282,207.543900 199.127457,222.431076 183.122818,225.681915 
	C170.834961,228.177811 156.872955,222.696014 149.863266,210.501556 
	C148.482269,208.099060 147.332901,205.563446 146.022781,202.675217 
z"/>
<path fill="none" opacity="1.000000" stroke="none"
	d="
M369.739288,336.392609 
	C376.910583,349.491211 376.683899,361.708344 367.313599,373.360657 
	C357.084595,386.080811 341.618164,389.213135 328.101715,382.312988 
	C316.654541,376.469208 309.832458,366.752655 310.055450,353.354279 
	C310.288696,339.338226 317.213226,329.353241 329.880249,323.662201 
	C344.373383,317.150757 361.549042,322.701263 369.739288,336.392609 
z"/>
</svg>